HIERARCHY
ROOT Hips
{
	OFFSET 0.000000 0.000000 0.000000
	CHANNELS 6 Xposition Yposition Zposition Zrotation Yrotation Xrotation 
	JOINT LHipJoint
	{
		OFFSET 0.000000 0.000000 0.000000
		CHANNELS 3 Zrotation Yrotation Xrotation
		JOINT LeftUpLeg
		{
			OFFSET 1.363060 -1.794630 0.839290
			CHANNELS 3 Zrotation Yrotation Xrotation
			JOINT LeftLeg
			{
				OFFSET 2.448110 -6.726130 0.000000
				CHANNELS 3 Zrotation Yrotation Xrotation
				JOINT LeftFoot
				{
					OFFSET 2.562200 -7.039590 0.000000
					CHANNELS 3 Zrotation Yrotation Xrotation
					JOINT LeftToeBase
					{
						OFFSET 0.157640 -0.433110 2.322550
						CHANNELS 3 Zrotation Yrotation Xrotation
						End Site
						{
							OFFSET 0.000000 0.000000 0.000000
						}
					}
				}
			}
		}
	}
	JOINT RHipJoint
	{
		OFFSET 0.000000 0.000000 0.000000
		CHANNELS 3 Zrotation Yrotation Xrotation
		JOINT RightUpLeg
		{
			OFFSET -1.305520 -1.794630 0.839290
			CHANNELS 3 Zrotation Yrotation Xrotation
			JOINT RightLeg
			{
				OFFSET -2.542530 -6.985550 0.000000
				CHANNELS 3 Zrotation Yrotation Xrotation
				JOINT RightFoot
				{
					OFFSET -2.568260 -7.056230 0.000000
					CHANNELS 3 Zrotation Yrotation Xrotation
					JOINT RightToeBase
					{
						OFFSET -0.164730 -0.452590 2.363150
						CHANNELS 3 Zrotation Yrotation Xrotation
						End Site
						{
							OFFSET 0.000000 0.000000 0.000000
						}
					}
				}
			}
		}
	}
	JOINT LowerBack
	{
		OFFSET 0.000000 0.000000 0.000000
		CHANNELS 3 Zrotation Yrotation Xrotation
		JOINT Spine
		{
			OFFSET 0.028270 2.035590 -0.193380
			CHANNELS 3 Zrotation Yrotation Xrotation
			JOINT Spine1
			{
				OFFSET 0.056720 2.048850 -0.042750
				CHANNELS 3 Zrotation Yrotation Xrotation
				JOINT Neck
				{
					OFFSET 0.000000 0.000000 0.000000
					CHANNELS 3 Zrotation Yrotation Xrotation
					JOINT Neck1
					{
						OFFSET -0.054170 1.746240 0.172020
						CHANNELS 3 Zrotation Yrotation Xrotation
						JOINT Head
						{
							OFFSET 0.104070 1.761360 -0.123970
							CHANNELS 3 Zrotation Yrotation Xrotation
							End Site
							{
								OFFSET 0.000000 0.000000 0.000000
							}
						}
					}
				}
				JOINT LeftShoulder
				{
					OFFSET 0.000000 0.000000 0.000000
					CHANNELS 3 Zrotation Yrotation Xrotation
					JOINT LeftArm
					{
						OFFSET 3.362410 1.200890 -0.311210
						CHANNELS 3 Zrotation Yrotation Xrotation
						JOINT LeftForeArm
						{
							OFFSET 4.983000 -0.000000 -0.000000
							CHANNELS 3 Zrotation Yrotation Xrotation
							JOINT LeftHand
							{
								OFFSET 3.483560 -0.000000 -0.000000
								CHANNELS 3 Zrotation Yrotation Xrotation
								JOINT LeftFingerBase
								{
									OFFSET 0.000000 0.000000 0.000000
									CHANNELS 3 Zrotation Yrotation Xrotation
									JOINT LeftHandIndex1
									{
										OFFSET 0.715260 -0.000000 -0.000000
										CHANNELS 3 Zrotation Yrotation Xrotation
										End Site
										{
											OFFSET 0.000000 0.000000 0.000000
										}
									}
								}
								JOINT LThumb
								{
									OFFSET 0.000000 0.000000 0.000000
									CHANNELS 3 Zrotation Yrotation Xrotation
									End Site
									{
										OFFSET 0.000000 0.000000 0.000000
									}
								}
							}
						}
					}
				}
				JOINT RightShoulder
				{
					OFFSET 0.000000 0.000000 0.000000
					CHANNELS 3 Zrotation Yrotation Xrotation
					JOINT RightArm
					{
						OFFSET -3.136600 1.374050 -0.404650
						CHANNELS 3 Zrotation Yrotation Xrotation
						JOINT RightForeArm
						{
							OFFSET -5.241900 -0.000000 -0.000000
							CHANNELS 3 Zrotation Yrotation Xrotation
							JOINT RightHand
							{
								OFFSET -3.444170 -0.000000 -0.000000
								CHANNELS 3 Zrotation Yrotation Xrotation
								JOINT RightFingerBase
								{
									OFFSET 0.000000 0.000000 0.000000
									CHANNELS 3 Zrotation Yrotation Xrotation
									JOINT RightHandIndex1
									{
										OFFSET -0.622530 -0.000000 -0.000000
										CHANNELS 3 Zrotation Yrotation Xrotation
										End Site
										{
											OFFSET 0.000000 0.000000 0.000000
										}
									}
								}
								JOINT RThumb
								{
									OFFSET 0.000000 0.000000 0.000000
									CHANNELS 3 Zrotation Yrotation Xrotation
									End Site
									{
										OFFSET 0.000000 0.000000 0.000000
									}
								}
							}
						}
					}
				}
			}
		}
	}
}
MOTION
Frames: 10
Frame Time: 0.008333
-11.090137 17.392493 7.456924 -178.537363 3.514914 178.156845 6.646017 1.208334 -0.669040 -24.292645 -4.800815 7.109003 -1.311781 6.931838 21.713853 -3.097594 21.158813 -30.755849 0.424200 4.179900 11.583400 -8.150675 -0.268840 -2.330436 30.448057 2.426564 -17.548814 -2.186073 -13.872790 35.734369 1.091439 -21.310838 -39.214078 -0.422700 -4.172600 11.562900 -4.837684 0.422223 8.885404 1.526839 1.573042 3.381704 -1.783870 0.871764 7.841649 -3.885939 -8.854255 -3.886685 16.492403 -13.385129 15.808158 3.115500 -5.108900 6.428000 13.926463 4.906121 0.668912 -93.829547 10.047929 38.232880 95.829149 -67.631105 -78.446402 2.071429 -4.346937 -28.933177 30.559907 20.218509 14.591600 -7.125000 0.000000 0.000000 1.531200 59.213000 0.531800 -16.567357 -4.774970 1.005539 103.826521 3.263315 71.950867 -76.594488 60.740306 -62.646441 -2.183147 3.529214 -39.144578 -26.273796 -12.217831 8.298200 7.125000 0.000000 0.000000 0.892500 -48.566800 -0.078500 
-11.027862 17.368638 7.364141 -178.368771 5.663276 178.320769 6.660578 1.237265 -0.649106 -23.982405 -3.585989 6.879525 -1.191309 7.127683 22.383516 -2.852526 21.001933 -31.694835 0.444300 4.276900 11.857000 -8.136604 -0.273825 -2.305272 30.960718 2.614772 -16.934631 -1.966055 -13.588857 34.818739 1.123296 -22.004446 -39.971925 -0.359200 -3.850500 10.656400 -4.220709 0.395620 8.398369 1.561995 1.495721 3.260723 -2.039198 0.826601 7.818700 -3.529353 -8.704830 -4.117156 16.019215 -13.136228 15.948011 2.869200 -4.979700 6.444200 13.969614 5.016309 0.670515 -94.199689 10.377945 37.988291 96.072809 -67.724521 -78.580513 2.065923 -4.355432 -29.015464 30.814232 20.340747 14.810900 -7.125000 0.000000 0.000000 1.813600 59.427600 0.639200 -16.568771 -4.854091 0.992749 103.969992 2.878532 71.791840 -76.798125 60.815846 -62.740277 -2.168116 3.567687 -39.008782 -27.049869 -12.328452 8.662200 7.125000 0.000000 0.000000 0.127700 -48.866800 -0.012200 
-10.950906 17.346045 7.271244 -178.004497 7.767625 178.466127 6.682580 1.268074 -0.633704 -23.375959 -2.335059 6.414503 -0.968167 7.488517 23.537262 -2.640600 20.741619 -32.271487 0.432800 4.221800 11.701400 -8.144466 -0.284778 -2.284741 31.804216 2.825395 -16.126489 -1.744336 -13.276511 33.814749 1.279277 -22.567007 -40.000907 -0.266400 -3.320200 9.171600 -3.480530 0.361005 8.020499 1.619363 1.409229 3.140913 -2.273575 0.779509 7.741249 -3.180919 -8.528185 -4.318775 15.563075 -12.852917 16.068490 2.632600 -4.835900 6.452400 14.021844 5.118200 0.673827 -94.564602 10.714640 37.697286 96.369352 -67.815868 -78.756612 2.077333 -4.348806 -29.079042 30.823032 20.530996 14.909200 -7.125000 0.000000 0.000000 1.759600 59.637400 0.629000 -16.565653 -4.926406 0.976709 104.133722 2.511182 71.673981 -76.947255 60.870183 -62.800567 -2.149841 3.602350 -38.883813 -27.720510 -12.375284 8.959900 7.125000 0.000000 0.000000 -0.550800 -49.074000 0.055300 
-10.861793 17.325630 7.176052 -177.471230 9.949811 178.574857 6.719218 1.302510 -0.628299 -22.535279 -1.027932 5.798620 -0.631862 8.001095 25.168208 -2.496887 20.471110 -32.481704 0.393300 4.027100 11.152900 -8.176741 -0.300995 -2.266906 32.938131 3.136480 -15.082631 -1.522903 -12.936790 32.735249 1.516761 -22.922497 -39.396263 -0.176900 -2.709000 7.469700 -2.674354 0.334378 7.733821 1.704352 1.337656 3.037651 -2.437245 0.737507 7.648170 -2.914364 -8.293991 -4.470915 15.151553 -12.493714 16.165527 2.433700 -4.663100 6.445500 14.075781 5.210773 0.687382 -95.011077 11.064793 37.285476 96.667129 -67.908185 -78.943258 2.102333 -4.334943 -29.137754 30.665680 20.755909 14.920100 -7.125000 0.000000 0.000000 1.477100 59.835300 0.534900 -16.553259 -4.997365 0.955150 104.245640 2.197548 71.685338 -76.990944 60.888750 -62.802625 -2.135303 3.624403 -38.728350 -28.099285 -12.402203 9.130500 7.125000 0.000000 0.000000 -0.934600 -49.193200 0.096700 
-10.755935 17.306133 7.080287 -176.825465 12.283522 178.578393 6.779885 1.347218 -0.642641 -21.469998 0.494521 5.116109 -0.161320 8.637911 27.248205 -2.477918 20.233837 -32.126886 0.329700 3.690200 10.206600 -8.237194 -0.319620 -2.248072 34.331305 3.710110 -13.686167 -1.305841 -12.581584 31.631311 1.767112 -23.131621 -38.513555 -0.110800 -2.146300 5.910000 -1.970884 0.343505 7.601339 1.816477 1.321540 2.974276 -2.439379 0.711404 7.563220 -2.740872 -7.997650 -4.585449 14.824630 -12.057588 16.240594 2.283900 -4.457100 6.427800 14.127843 5.281133 0.712126 -95.540191 11.389359 36.725615 96.882438 -67.985975 -79.095827 2.144189 -4.314111 -29.158001 30.281515 20.994317 14.794800 -7.125000 0.000000 0.000000 0.891400 59.981900 0.325900 -16.521623 -5.061737 0.924453 104.302818 1.983691 71.848937 -76.863400 60.847972 -62.705465 -2.131998 3.635930 -38.530448 -28.147023 -12.453118 9.179200 7.125000 0.000000 0.000000 -0.969300 -49.270400 0.102100 
-10.644114 17.292141 6.988422 -176.195758 14.660116 178.579621 6.866530 1.386450 -0.681843 -20.359642 2.046680 4.282538 0.434432 9.384324 29.710311 -2.630509 20.128018 -31.121086 0.270400 3.345200 9.241500 -8.307977 -0.333082 -2.222886 35.751404 4.449614 -12.193537 -1.107471 -12.233989 30.575277 2.018788 -23.275539 -37.493007 -0.071000 -1.719300 4.730600 -1.332408 0.366432 7.575213 1.916846 1.334177 2.929146 -2.452565 0.708253 7.464385 -2.597205 -7.670155 -4.666975 14.598195 -11.596448 16.280917 2.183200 -4.237600 6.402500 14.171069 5.323550 0.738268 -96.052329 11.639396 36.132561 96.938744 -68.035392 -79.168205 2.198663 -4.292492 -29.183637 29.779636 21.207161 14.584200 -7.125000 0.000000 0.000000 0.156100 60.071500 0.057400 -16.491409 -5.104969 0.884839 104.400826 1.862257 72.052702 -76.534812 60.733574 -62.475105 -2.143552 3.630493 -38.323500 -27.773127 -12.552121 9.077500 7.125000 0.000000 0.000000 -0.556100 -49.308500 0.059100 
-10.528967 17.284113 6.899883 -175.756116 17.058723 178.564312 6.980122 1.408981 -0.748230 -19.415229 3.541636 3.316577 1.146568 10.221089 32.494842 -2.953377 20.213861 -29.483579 0.241400 3.162100 8.730300 -8.373963 -0.335956 -2.190397 36.977500 5.294807 -10.703454 -0.941541 -11.914285 29.644996 2.231379 -23.355928 -36.527518 -0.046100 -1.385100 3.809100 -0.905974 0.413717 7.598844 1.977697 1.383293 2.899280 -2.498848 0.732006 7.374737 -2.446933 -7.331077 -4.729705 14.467150 -11.139993 16.300740 2.120800 -4.014500 6.375900 14.201719 5.339361 0.760184 -96.487470 11.803030 35.563694 96.817587 -68.051439 -79.142667 2.258050 -4.273947 -29.234675 29.258308 21.362712 14.336200 -7.125000 0.000000 0.000000 -0.586100 60.099100 -0.215900 -16.469155 -5.125393 0.836860 104.592889 1.816773 72.244574 -76.000613 60.536186 -62.070761 -2.159354 3.627281 -38.073978 -27.322556 -12.693418 8.967400 7.125000 0.000000 0.000000 -0.054000 -49.383000 0.005800 
-10.415884 17.283539 6.813637 -175.610411 19.415923 178.534004 7.113668 1.404695 -0.836814 -18.800399 4.808455 2.197951 1.958377 11.133643 35.542236 -3.434624 20.583248 -27.294374 0.257700 3.266000 9.020100 -8.422181 -0.327956 -2.153872 37.841243 6.085538 -9.367551 -0.817137 -11.636154 28.881139 2.421662 -23.407815 -35.592694 -0.029500 -1.108400 3.047200 -0.727942 0.455641 7.622038 1.986612 1.421060 2.870632 -2.609442 0.759195 7.296368 -2.276856 -6.980663 -4.789257 14.388551 -10.683145 16.315610 2.078300 -3.785500 6.352900 14.217609 5.337945 0.774394 -96.843384 11.896055 35.016484 96.534600 -68.035414 -79.025983 2.319113 -4.258753 -29.278449 28.731763 21.464840 14.061900 -7.125000 0.000000 0.000000 -1.316300 60.072200 -0.484100 -16.462630 -5.124362 0.784889 104.848527 1.835995 72.446886 -75.344541 60.285884 -61.548510 -2.178168 3.624824 -37.899183 -26.882381 -12.853164 8.870900 7.125000 0.000000 0.000000 0.438700 -49.481600 -0.048500 
-10.306586 17.287783 6.726015 -175.790577 21.747825 178.467608 7.261260 1.372207 -0.939101 -18.589375 5.775031 0.928216 2.858578 12.103354 38.798750 -4.045517 21.308392 -24.667584 0.314600 3.605500 9.969400 -8.446215 -0.311714 -2.117385 38.289704 6.734170 -8.222442 -0.729768 -11.392920 28.257712 2.625346 -23.511980 -34.627680 -0.010300 -0.655300 1.800800 -0.792965 0.502082 7.603931 1.939468 1.456653 2.834067 -2.796894 0.794036 7.228158 -2.076921 -6.629747 -4.849125 14.317751 -10.233878 16.330458 2.035700 -3.557200 6.332300 14.223233 5.331378 0.778592 -97.091415 11.956691 34.538373 96.181503 -67.998783 -78.860534 2.373751 -4.247502 -29.330909 28.286499 21.529348 13.821800 -7.125000 0.000000 0.000000 -1.925500 60.029900 -0.706300 -16.473940 -5.109318 0.735125 105.147959 1.876908 72.636653 -74.669841 60.024014 -60.992505 -2.198239 3.620288 -37.820450 -26.471074 -13.017658 8.786600 7.125000 0.000000 0.000000 0.900400 -49.588500 -0.101900 
-10.197403 17.295352 6.637476 -176.056336 24.050762 178.367788 7.413152 1.328922 -1.043948 -18.520318 6.414210 -0.441510 3.851262 13.084603 42.201007 -4.701070 22.205052 -21.549428 0.375900 3.937600 10.901100 -8.460051 -0.292891 -2.082519 38.615375 7.283703 -7.149729 -0.659594 -11.168536 27.707858 2.830287 -23.673362 -33.710583 -0.000100 -0.077600 0.213200 -0.899560 0.555777 7.617276 1.868767 1.502937 2.789668 -3.042299 0.842284 7.128495 -1.848987 -6.291113 -4.896065 14.234884 -9.803399 16.334755 1.984700 -3.338300 6.309100 14.230604 5.323180 0.775391 -97.220706 12.023596 34.169240 95.896171 -67.960663 -78.716894 2.414996 -4.239089 -29.410132 27.989835 21.585962 13.668700 -7.125000 0.000000 0.000000 -2.337900 60.018300 -0.857000 -16.494318 -5.086457 0.690248 105.482604 1.898951 72.768697 -74.039141 59.775047 -60.459856 -2.217279 3.613834 -37.770964 -26.084244 -13.184125 8.710500 7.125000 0.000000 0.000000 1.337500 -49.699100 -0.155000 
